<svg width="54" height="54" viewBox="0 0 54 54" fill="none" xmlns="http://www.w3.org/2000/svg">
<g clip-path="url(#clip0_12561_676)">
<path d="M27.0001 53.9996C19.8393 53.9996 12.9717 51.155 7.90823 46.0915C2.84475 41.028 0.000118256 34.1605 0.000118256 26.9996C0.000118256 19.8388 2.84475 12.9712 7.90823 7.90775C12.9717 2.84427 19.8393 -0.000366211 27.0001 -0.000366211C34.161 -0.000366211 41.0285 2.84427 46.092 7.90775C51.1555 12.9712 54.0001 19.8388 54.0001 26.9996C54.0001 34.1605 51.1555 41.028 46.092 46.0915C41.0285 51.155 34.161 53.9996 27.0001 53.9996V53.9996ZM38.8126 28.6871C39.2602 28.6871 39.6894 28.5093 40.0059 28.1929C40.3223 27.8764 40.5001 27.4472 40.5001 26.9996C40.5001 26.5521 40.3223 26.1229 40.0059 25.8064C39.6894 25.4899 39.2602 25.3121 38.8126 25.3121L19.2612 25.3121L26.5074 18.0694C26.8242 17.7525 27.0023 17.3228 27.0023 16.8746C27.0023 16.4265 26.8242 15.9968 26.5074 15.6799C26.1905 15.363 25.7607 15.185 25.3126 15.185C24.8645 15.185 24.4347 15.363 24.1179 15.6799L13.9929 25.8049C13.8357 25.9616 13.711 26.1479 13.626 26.3529C13.5409 26.5579 13.4971 26.7777 13.4971 26.9996C13.4971 27.2216 13.5409 27.4414 13.626 27.6464C13.711 27.8514 13.8357 28.0376 13.9929 28.1944L24.1179 38.3194C24.4347 38.6363 24.8645 38.8143 25.3126 38.8143C25.7607 38.8143 26.1905 38.6363 26.5074 38.3194C26.8242 38.0025 27.0023 37.5728 27.0023 37.1246C27.0023 36.6765 26.8242 36.2468 26.5074 35.9299L19.2612 28.6871L38.8126 28.6871Z" fill="#F5FBF2"/>
</g>
<defs>
<clipPath id="clip0_12561_676">
<rect width="54" height="54" fill="white" transform="matrix(0 1 -1 0 54.0001 -0.000366211)"/>
</clipPath>
</defs>
</svg>
